<?xml version="1.0" encoding="utf-8"?>
<!-- Adamovies Logo built by Adam in Feb. 2022 -->
<svg version="1.1" id="Layer_1" xmlns="http://www.w3.org/2000/svg" xmlns:xlink="http://www.w3.org/1999/xlink" x="0px" y="0px"
	 viewBox="0 0 512 512" style="enable-background:new 0 0 512 512;" xml:space="preserve">
<g id="_x31_81597" transform="matrix(0 0.2716 -0.3136 0 125.6398 126.5103)">
	<path vector-effect="non-scaling-stroke" d="M-88.8,212.2V86.6c0-17.3-6.3-31.4-18.9-44s-27.5-18.8-44-18.8h-125.7
		c-17.3,0-31.4,6.3-44,18.8c-12.6,12.6-18.9,27.5-18.9,44v125.6c0,17.3,6.3,31.4,18.9,44c12.6,12.6,27.5,18.8,44,18.8h125.7
		c17.3,0,31.4-6.3,44-18.8C-95.1,243.6-88.8,229.4-88.8,212.2z M-88.8-164.5v-125.6c0-17.3-6.3-31.4-18.9-44s-27.5-18.8-44-18.8
		h-125.7c-17.3,0-31.4,6.3-44,18.8c-12.6,12.6-18.9,27.5-18.9,44v125.6c0,17.3,6.3,31.4,18.9,44c12.6,12.6,27.5,18.8,44,18.8h125.7
		c17.3,0,31.4-6.3,44-18.8S-88.8-147.2-88.8-164.5z M-88.8-541.3v-125.6c0-17.3-6.3-31.4-18.9-44c-12.6-12.6-27.5-18.8-44-18.8
		h-125.7c-17.3,0-31.4,6.3-44,18.8c-12.6,12.6-18.9,27.5-18.9,44v125.6c0,17.3,6.3,31.4,18.9,44c12.6,12.6,27.5,18.8,44,18.8h125.7
		c17.3,0,31.4-6.3,44-18.8C-95.1-509.9-88.8-524-88.8-541.3z M916.6,212.2v-502.4c0-17.3-6.3-31.4-18.9-44
		c-12.6-12.6-27.5-18.8-44-18.8h-754c-17.3,0-31.4,6.3-44,18.8c-12.6,12.6-18.9,27.5-18.9,44v502.4c0,17.3,6.3,31.4,18.9,44
		s27.5,18.8,44,18.8h754.1c17.3,0,31.4-6.3,44-18.8C910.3,243.6,916.6,229.4,916.6,212.2z M-88.8-918v-125.6
		c0-17.3-6.3-31.4-18.9-44s-27.5-18.8-44-18.8h-125.7c-17.3,0-31.4,6.3-44,18.8c-12.6,12.6-18.9,27.5-18.9,44V-918
		c0,17.3,6.3,31.4,18.9,44c12.6,12.6,27.5,18.8,44,18.8h125.7c17.3,0,31.4-6.3,44-18.8C-95.1-886.6-88.8-900.8-88.8-918z
		 M1293.7,212.2V86.6c0-17.3-6.3-31.4-18.9-44c-12.6-12.6-27.5-18.8-44-18.8h-125.7c-17.3,0-31.4,6.3-44,18.8
		c-12.6,12.6-18.9,27.5-18.9,44v125.6c0,17.3,6.3,31.4,18.9,44c12.6,12.6,27.5,18.8,44,18.8h125.7c17.3,0,31.4-6.3,44-18.8
		C1287.4,243.6,1293.7,229.4,1293.7,212.2z M916.6-541.3v-502.4c0-17.3-6.3-31.4-18.9-44c-12.6-12.6-27.5-18.8-44-18.8h-754
		c-17.3,0-31.4,6.3-44,18.8s-18.9,27.5-18.9,44v502.4c0,17.3,6.3,31.4,18.9,44s27.5,18.8,44,18.8h754.1c17.3,0,31.4-6.3,44-18.8
		C910.3-509.9,916.6-524,916.6-541.3z M1293.7-164.5v-125.6c0-17.3-6.3-31.4-18.9-44c-12.6-12.6-27.5-18.8-44-18.8h-125.7
		c-17.3,0-31.4,6.3-44,18.8c-12.6,12.6-18.9,27.5-18.9,44v125.6c0,17.3,6.3,31.4,18.9,44c12.6,12.6,27.5,18.8,44,18.8h125.7
		c17.3,0,31.4-6.3,44-18.8C1287.4-133.1,1293.7-147.2,1293.7-164.5z M1293.7-541.3v-125.6c0-17.3-6.3-31.4-18.9-44
		c-12.6-12.6-27.5-18.8-44-18.8h-125.7c-17.3,0-31.4,6.3-44,18.8c-12.6,12.6-18.9,27.5-18.9,44v125.6c0,17.3,6.3,31.4,18.9,44
		c12.6,12.6,27.5,18.8,44,18.8h125.7c17.3,0,31.4-6.3,44-18.8C1287.4-509.9,1293.7-524,1293.7-541.3z M1293.7-918v-125.6
		c0-17.3-6.3-31.4-18.9-44c-12.6-12.6-27.5-18.8-44-18.8h-125.7c-17.3,0-31.4,6.3-44,18.8c-12.6,12.6-18.9,27.5-18.9,44V-918
		c0,17.3,6.3,31.4,18.9,44c12.6,12.6,27.5,18.8,44,18.8h125.7c17.3,0,31.4-6.3,44-18.8C1287.4-886.6,1293.7-900.8,1293.7-918z
		 M1419.3-1075V243.6c0,43.2-15.7,80.1-46.3,110.7c-30.6,30.6-67.6,46.3-110.8,46.3H-308.7c-43.2,0-80.1-15.7-110.8-46.3
		s-46.3-67.5-46.3-110.7V-1075c0-43.2,15.7-80.1,46.3-110.7c30.6-30.6,67.6-46.3,110.8-46.3h1570.9c43.2,0,80.1,15.7,110.8,46.3
		C1403.6-1155.1,1419.3-1118.2,1419.3-1075z"/>
</g>
<g id="_x39_74460" transform="matrix(0.256 0 0 0.256 110.4015 127.872)">
	<path d="M-91.8,836.4h-114.3v-542c0-35.2,12-65.7,36-91.5s52-38.3,84.7-38.3l0,0h382.8c33.6,0,62.3,12.5,85.5,38.3
		c24,25.8,36,56.3,36,91.5l0,0v542H303.8v-226H-91v226H-91.8z M-91.8,321v166.6H303V321c0-17.2-0.8-27.4-3.2-29.7
		c-2.4-2.3-11.2-3.1-27.2-3.1l0,0h-334c-16,0-25.6,0.8-27.2,3.1C-90.2,293.6-91.8,303.8-91.8,321L-91.8,321z"/>
</g>
<g id="_x33_02395" transform="matrix(1 0 0 1 140.969 128)">
	<path d="M178.8,214h-25.6V42H182l51.2,73.9L284.4,42h28.8v172h-26.4V87.8l-53.6,78l-53.6-77.2V214H178.8z"/>
</g>
</svg>